<?xml version="1.0" standalone="no"?>
<!DOCTYPE svg PUBLIC "-//W3C//DTD SVG 20010904//EN"
 "http://www.w3.org/TR/2001/REC-SVG-20010904/DTD/svg10.dtd">
<svg version="1.0" xmlns="http://www.w3.org/2000/svg"
 width="260.000000pt" height="260.000000pt" viewBox="0 0 260.000000 260.000000"
 preserveAspectRatio="xMidYMid meet">
<metadata>
Created by potrace 1.14, written by Peter Selinger 2001-2017
</metadata>
<g transform="translate(0.000000,260.000000) scale(0.100000,-0.100000)"
fill="#000000" stroke="none">
<path d="M1113 1934 c9 -11 14 -23 11 -27 -4 -3 5 -4 20 -1 14 2 26 1 26 -4 0
-11 -67 -9 -77 2 -5 5 -2 6 7 1 10 -5 8 -1 -4 13 -11 12 -20 22 -21 22 -7 0 0
-38 9 -50 9 -12 8 -13 -4 -4 -8 6 -25 10 -38 9 -18 -1 -21 2 -17 19 5 19 5 19
-5 3 -6 -9 -16 -14 -22 -11 -8 5 -9 1 -4 -11 5 -14 4 -16 -7 -7 -8 7 -18 8
-22 4 -5 -4 -5 -2 -1 5 3 6 1 15 -5 19 -8 4 -9 3 -5 -4 4 -7 3 -12 -3 -12 -6
0 -9 -6 -7 -12 1 -7 1 -10 -1 -5 -3 4 -9 5 -14 2 -5 -4 -6 1 -3 9 3 9 3 16 0
16 -4 0 -11 -11 -16 -25 -5 -14 -17 -25 -25 -25 -9 0 -14 -4 -10 -10 3 -5 13
-6 23 -3 9 3 14 2 9 -2 -4 -5 -17 -9 -30 -10 -15 -1 -23 -9 -25 -24 -2 -15 -9
-21 -18 -17 -8 3 -14 1 -14 -5 0 -6 -4 -8 -9 -4 -5 3 -13 0 -17 -6 -5 -8 -2
-10 7 -5 8 4 6 1 -3 -7 -14 -11 -15 -16 -5 -26 9 -10 8 -11 -5 -6 -12 5 -18 2
-18 -6 0 -10 -2 -11 -8 -2 -4 7 -16 -1 -32 -23 -14 -18 -31 -32 -38 -29 -9 3
-10 0 -3 -13 6 -11 6 -24 1 -32 -5 -8 -6 -19 -2 -25 3 -5 -1 -4 -10 3 -14 11
-16 10 -11 -9 4 -13 2 -20 -3 -16 -6 3 -11 -3 -11 -14 -1 -10 3 -19 9 -19 6 0
6 -6 -2 -15 -7 -8 -9 -15 -5 -15 5 0 0 -10 -11 -22 l-19 -23 23 19 c22 19 22
19 22 -2 0 -11 -6 -23 -12 -26 -7 -3 -3 -3 9 -1 12 3 25 0 29 -6 4 -8 3 -9 -4
-5 -7 4 -20 2 -29 -4 -16 -11 -16 -11 -1 -6 10 3 20 1 23 -4 4 -6 0 -10 -8
-10 -10 0 -14 -7 -10 -22 4 -19 3 -20 -6 -8 -7 9 -11 10 -11 3 0 -6 4 -14 9
-17 5 -4 8 -14 6 -24 -2 -9 -4 -19 -4 -21 -1 -3 -8 4 -17 15 -14 18 -14 17 -2
-6 7 -14 11 -28 10 -32 -1 -5 3 -8 9 -8 8 0 8 -5 -1 -15 -7 -8 -9 -15 -5 -15
5 0 0 -10 -11 -22 l-19 -23 23 19 c22 19 22 19 22 -2 0 -11 -6 -23 -12 -26 -7
-3 -3 -3 9 -1 12 3 25 0 29 -6 4 -8 3 -9 -4 -5 -7 4 -20 2 -29 -4 -16 -11 -16
-11 -1 -6 10 3 20 1 23 -4 4 -6 0 -10 -8 -10 -10 0 -14 -7 -10 -22 4 -19 3
-20 -6 -8 -7 9 -11 10 -11 3 0 -6 4 -14 9 -17 13 -8 7 -36 -10 -47 -11 -7 -11
-9 -1 -9 7 0 10 -4 7 -10 -3 -5 -1 -10 5 -10 7 0 9 7 6 16 -3 8 -2 13 3 10 4
-3 7 7 6 22 -2 33 4 52 17 52 5 0 6 -6 1 -12 -4 -7 -8 -27 -8 -45 -1 -18 -10
-42 -20 -53 -10 -11 -14 -20 -10 -20 4 0 0 -10 -11 -22 l-19 -23 23 19 c22 19
22 19 22 -2 0 -11 -6 -23 -12 -26 -7 -3 -3 -3 9 -1 12 3 25 0 29 -6 4 -8 3 -9
-4 -5 -7 4 -20 2 -29 -4 -16 -11 -16 -11 -1 -6 10 3 20 1 23 -4 4 -6 0 -10 -8
-10 -10 0 -14 -7 -10 -22 4 -19 3 -20 -6 -8 -7 9 -11 10 -11 3 0 -6 4 -14 9
-17 13 -8 7 -36 -10 -47 -11 -7 -11 -9 -1 -9 7 0 10 -4 7 -10 -3 -5 -1 -10 6
-10 8 0 7 -5 -2 -17 -8 -9 -14 -19 -14 -22 0 -3 -4 -5 -8 -3 -5 1 -6 -2 -2 -8
5 -8 11 -7 21 1 12 9 14 6 14 -22 0 -25 3 -30 10 -19 7 12 9 10 7 -8 0 -12 -5
-22 -10 -22 -4 0 -7 -8 -5 -17 1 -10 -1 -23 -5 -29 -4 -7 0 -11 11 -10 9 0 16
-4 15 -10 -1 -6 4 -11 12 -11 8 0 12 4 9 9 -3 4 2 8 11 8 9 0 13 -4 10 -10 -3
-5 -1 -10 4 -10 6 0 11 10 12 23 0 12 3 16 6 10 2 -7 9 -13 14 -13 6 0 7 5 4
10 -3 6 -1 10 5 10 7 0 10 -6 7 -14 -3 -8 1 -17 9 -20 10 -4 12 -2 8 5 -5 8 3
10 25 7 18 -3 35 0 38 5 3 6 1 7 -5 3 -7 -4 -12 -2 -12 3 0 14 17 14 25 1 4
-6 12 -7 18 -3 17 10 57 13 57 3 0 -4 -11 -7 -25 -6 -13 2 -22 -1 -19 -6 3 -5
12 -7 19 -4 7 2 16 2 19 -2 12 -11 58 -14 51 -2 -3 5 -2 10 4 10 5 0 9 -9 8
-19 0 -10 -6 -17 -12 -15 -7 3 -11 -7 -11 -23 1 -23 -3 -27 -19 -25 -18 3 -18
2 3 -13 12 -9 20 -20 17 -25 -3 -5 2 -16 11 -24 14 -15 14 -16 -5 -16 -12 0
-21 -5 -21 -11 0 -5 5 -7 12 -3 8 5 9 2 4 -11 -6 -16 -4 -16 11 -4 9 8 14 9
10 3 -3 -6 0 -20 7 -30 10 -13 11 -23 4 -31 -7 -9 -4 -11 11 -8 31 6 41 14 35
29 -3 8 0 17 7 22 8 4 10 3 5 -4 -4 -7 -2 -12 3 -12 6 0 11 10 12 23 0 12 3
17 5 10 3 -7 12 -9 20 -6 13 5 13 7 2 14 -10 7 -8 13 11 31 14 13 19 15 12 5
-12 -15 -12 -17 3 -11 9 3 16 10 16 16 0 5 4 7 9 3 5 -3 12 -1 15 4 4 5 1 13
-5 17 -8 4 -9 3 -5 -4 5 -8 1 -10 -11 -5 -14 6 -12 9 15 20 22 9 30 18 26 26
-6 9 -4 9 8 -1 13 -10 15 -9 13 12 -2 17 1 23 10 20 7 -3 16 -1 19 5 4 6 12 9
19 7 7 -1 9 -1 5 1 -14 8 -8 25 7 20 8 -4 17 -1 21 5 5 7 2 8 -6 3 -9 -5 -11
-4 -6 4 6 9 11 9 23 -1 17 -14 65 -20 57 -7 -2 4 -13 6 -23 4 -11 -2 -22 2
-24 9 -3 7 1 13 9 13 8 0 14 -4 14 -9 0 -4 3 -7 8 -7 26 4 44 -3 39 -16 -4 -8
-1 -17 5 -21 6 -4 8 -3 5 2 -3 6 -2 16 3 24 7 11 13 11 34 -4 15 -9 26 -13 25
-9 -3 21 2 24 19 12 15 -13 16 -12 3 4 -9 11 -17 14 -25 8 -8 -6 -17 -6 -26 1
-13 8 -12 9 2 5 9 -3 19 -3 22 1 11 10 36 11 36 1 0 -6 7 -6 19 0 10 6 21 8
24 5 8 -9 3 19 -7 35 -6 10 -5 12 2 7 7 -4 12 -1 12 6 0 9 3 9 10 -2 9 -13 10
-13 11 0 1 8 1 19 0 24 -1 5 5 3 14 -4 8 -7 18 -10 22 -6 3 3 1 6 -5 6 -17 0
-14 12 9 40 11 14 18 20 15 13 -4 -6 -1 -15 5 -19 7 -4 9 -3 5 4 -3 6 -2 13 4
17 6 4 7 11 4 17 -5 8 -1 9 11 4 15 -5 16 -4 6 8 -10 12 -8 14 13 12 14 -2 24
2 23 8 -1 6 4 10 11 8 8 -1 11 2 7 8 -3 6 -11 8 -16 5 -22 -14 -6 4 17 20 15
9 23 11 19 4 -5 -8 -4 -10 3 -5 7 4 12 14 12 22 0 18 25 46 34 37 3 -3 12 0
21 7 11 9 12 16 5 26 -9 9 -5 12 15 10 20 -3 23 -1 14 11 -10 11 -8 12 6 6 15
-5 17 -3 12 11 -5 11 -3 15 5 10 8 -5 9 -2 5 10 -6 14 -4 15 16 5 20 -11 21
-11 8 4 -12 15 -11 17 7 17 15 0 20 5 16 15 -4 8 -1 15 6 15 6 0 9 4 6 9 -3 4
6 7 19 5 14 -1 23 2 19 7 -3 5 1 9 8 9 9 0 9 3 -2 10 -12 8 -12 10 5 11 11 0
14 3 8 6 -15 6 -18 43 -3 43 5 0 7 -8 4 -17 -5 -15 -4 -16 5 -3 8 11 7 18 -4
26 -18 14 -20 28 -2 21 7 -3 13 3 13 14 0 14 -3 15 -14 7 -9 -8 -16 -8 -25 1
-9 10 -8 11 6 6 19 -8 24 10 5 18 -9 4 -9 6 -1 6 6 1 9 10 6 21 -3 11 0 20 6
20 5 0 9 -6 7 -12 -1 -7 -1 -10 1 -5 3 4 10 5 16 1 7 -3 2 3 -10 14 -24 21
-30 42 -12 42 5 0 7 -5 3 -12 -5 -7 -3 -8 6 -3 10 6 10 11 -3 20 -20 14 -22
29 -4 22 7 -3 13 3 13 14 0 14 -3 15 -14 7 -9 -8 -16 -8 -25 1 -9 10 -8 11 6
6 19 -8 24 10 5 18 -9 4 -9 6 -1 6 6 1 9 10 6 21 -3 11 0 20 6 20 5 0 9 -6 7
-12 -1 -7 -1 -10 1 -5 3 4 10 5 16 1 7 -3 3 3 -9 13 -16 15 -18 21 -9 30 7 7
16 9 21 5 4 -4 4 -1 0 6 -6 11 -11 11 -24 0 -13 -11 -15 -11 -9 4 3 9 3 19 -1
21 -4 2 -1 2 6 1 6 -2 12 1 12 7 0 6 4 8 8 5 5 -3 9 2 9 10 0 10 -4 11 -11 4
-15 -15 -22 -12 -23 10 -1 11 3 20 8 20 6 0 7 -4 4 -10 -4 -6 1 -7 11 -3 15 5
15 7 0 15 -9 5 -16 14 -16 19 0 6 5 7 12 3 7 -5 8 -3 3 6 -4 7 -2 16 5 20 14
9 5 30 -13 30 -9 0 -9 -2 0 -8 8 -5 8 -11 -1 -24 -8 -11 -17 -14 -27 -7 -11 7
-11 9 4 9 20 0 23 16 5 23 -9 4 -9 6 -1 6 6 1 9 10 6 21 -3 11 0 20 6 20 5 0
8 -8 5 -17 -5 -15 -4 -16 5 -3 8 11 7 18 -3 25 -10 8 -9 14 6 29 10 11 18 24
18 29 0 5 -9 -1 -21 -14 -14 -16 -19 -19 -15 -7 3 9 2 19 -2 21 -4 2 -2 3 3 2
6 -2 16 4 24 12 12 13 11 14 -5 9 -15 -4 -20 -1 -21 14 -1 11 3 20 8 20 6 0 7
-5 3 -12 -5 -7 -3 -8 6 -3 11 7 10 10 -1 19 -8 6 -15 18 -17 26 -2 8 -9 18
-15 22 -6 4 -8 11 -3 15 5 4 11 3 13 -3 2 -6 10 -19 17 -29 12 -17 13 -16 11
5 -1 14 -13 29 -33 39 -27 14 -30 19 -20 31 11 12 10 12 -5 1 -11 -9 -14 -17
-8 -25 7 -9 2 -12 -19 -11 -15 0 -26 3 -23 7 2 5 -3 8 -12 8 -9 0 -14 -4 -10
-9 3 -5 1 -13 -5 -16 -6 -4 -9 -1 -8 6 2 7 -1 13 -7 14 -5 0 -16 4 -22 8 -7 5
-13 4 -13 -2 0 -5 8 -15 18 -20 9 -6 12 -11 5 -11 -6 0 -15 5 -18 10 -4 6 -11
7 -17 4 -6 -4 -8 2 -4 17 3 13 3 18 0 12 -3 -7 -10 -13 -15 -13 -6 0 -7 6 -3
13 6 9 4 9 -8 -1 -11 -9 -18 -9 -21 -2 -3 6 -4 5 -3 -2 2 -7 8 -13 14 -13 5 0
14 -3 18 -7 10 -11 -31 -1 -57 12 -14 8 -19 8 -15 1 4 -6 4 -11 -1 -12 -44 -5
-61 -4 -57 3 3 4 10 6 15 3 5 -4 6 2 2 11 -4 11 -8 13 -11 6 -2 -7 -10 -12
-18 -12 -9 0 -13 4 -10 8 3 5 -1 9 -9 9 -8 0 -12 -4 -9 -9 3 -4 0 -8 -5 -8 -6
0 -11 5 -11 12 0 6 -3 8 -6 5 -4 -4 -1 -14 7 -23 13 -16 11 -16 -20 0 -18 10
-30 13 -27 7 4 -6 4 -11 -1 -12 -44 -5 -61 -4 -57 3 3 4 10 6 15 3 5 -4 6 2 2
11 -4 11 -8 13 -11 6 -2 -7 -10 -12 -18 -12 -9 0 -13 4 -10 8 3 5 -1 9 -9 9
-8 0 -12 -4 -9 -9 3 -4 0 -8 -5 -8 -6 0 -11 5 -11 12 0 6 -3 8 -6 5 -4 -4 -1
-14 7 -23 13 -16 11 -16 -20 0 -18 10 -30 13 -27 7 4 -6 4 -11 -1 -12 -44 -5
-61 -4 -57 3 3 4 10 6 15 3 5 -4 6 2 2 11 -4 11 -8 13 -11 6 -2 -7 -10 -12
-18 -12 -9 0 -13 4 -10 8 3 5 -1 9 -9 9 -8 0 -12 -4 -10 -8 3 -3 -3 -13 -12
-20 -15 -12 -16 -12 -11 3 5 12 1 16 -18 13 -13 -1 -24 3 -24 9 0 6 -4 5 -9
-3 -6 -8 -14 -10 -22 -5 -8 5 -23 8 -35 9 -11 0 -29 7 -40 15 -18 14 -18 14
-1 -6z m134 -30 c-8 -8 -48 -13 -43 -6 2 4 14 8 26 9 12 1 20 0 17 -3z m58 -4
c3 -5 1 -10 -4 -10 -6 0 -11 5 -11 10 0 6 2 10 4 10 3 0 8 -4 11 -10z m160 0
c3 -5 1 -10 -4 -10 -6 0 -11 5 -11 10 0 6 2 10 4 10 3 0 8 -4 11 -10z m160 0
c3 -5 1 -10 -4 -10 -6 0 -11 5 -11 10 0 6 2 10 4 10 3 0 8 -4 11 -10z m-882
-210 c-3 -11 -9 -17 -15 -14 -5 3 -4 12 3 20 16 19 18 18 12 -6z m-56 -107
c-4 -3 -2 -12 4 -19 10 -12 7 -12 -30 -5 -5 1 20 31 27 31 3 0 2 -3 -1 -7z
m-1 -69 c2 -23 1 -24 -11 -7 -7 10 -11 21 -9 25 10 16 19 7 20 -18z m5 -118
c-8 -10 -9 -16 -1 -21 6 -3 7 -12 3 -18 -8 -12 -9 -18 -12 -39 -1 -9 -4 -9
-10 2 -6 8 -7 19 -3 25 4 5 7 18 8 28 3 34 4 37 15 37 8 0 8 -4 0 -14z m-5
-122 c2 -23 1 -24 -11 -7 -7 10 -11 21 -9 25 10 16 19 7 20 -18z m0 -240 c2
-23 1 -24 -11 -7 -7 10 -11 21 -9 25 10 16 19 7 20 -18z m7 -116 c-4 -7 -8
-25 -9 -40 -3 -51 -4 -54 -13 -38 -6 8 -7 19 -3 25 4 5 7 18 8 28 3 34 4 37
15 37 6 0 7 -5 2 -12z m-7 -124 c2 -23 1 -24 -11 -7 -7 10 -11 21 -9 25 10 16
19 7 20 -18z m849 -114 c-3 -5 -12 -10 -18 -10 -7 0 -6 4 3 10 19 12 23 12 15
0z m-825 -20 c0 -5 -2 -10 -4 -10 -3 0 -8 5 -11 10 -3 6 -1 10 4 10 6 0 11 -4
11 -10z m272 3 c-6 -2 -10 -8 -8 -12 3 -4 -1 -8 -9 -8 -11 0 -12 4 -4 14 6 7
17 13 23 12 7 0 6 -2 -2 -6z m438 1 c0 -8 -19 -13 -24 -6 -3 5 1 9 9 9 8 0 15
-2 15 -3z m-413 -114 c-2 -11 -7 -23 -12 -27 -4 -5 -5 -3 -1 4 3 6 2 14 -4 18
-12 7 -4 25 11 25 5 0 8 -9 6 -20z"/>
<path d="M1265 1940 c-3 -6 1 -7 9 -4 18 7 21 14 7 14 -6 0 -13 -4 -16 -10z"/>
<path d="M1395 1941 c-3 -5 -2 -12 3 -15 5 -3 9 1 9 9 0 17 -3 19 -12 6z"/>
<path d="M1555 1941 c-3 -5 -2 -12 3 -15 5 -3 9 1 9 9 0 17 -3 19 -12 6z"/>
<path d="M1715 1941 c-3 -5 -2 -12 3 -15 5 -3 9 1 9 9 0 17 -3 19 -12 6z"/>
<path d="M1356 1932 c-2 -4 -1 -14 4 -22 7 -11 9 -9 7 8 -1 24 -3 26 -11 14z"/>
<path d="M1516 1932 c-2 -4 -1 -14 4 -22 7 -11 9 -9 7 8 -1 24 -3 26 -11 14z"/>
<path d="M1676 1932 c-2 -4 -1 -14 4 -22 7 -11 9 -9 7 8 -1 24 -3 26 -11 14z"/>
<path d="M976 1921 c9 -9 34 -9 34 -1 0 5 -9 8 -20 7 -10 -1 -17 -3 -14 -6z"/>
<path d="M1045 1921 c-3 -5 -2 -12 3 -15 5 -3 9 1 9 9 0 17 -3 19 -12 6z"/>
<path d="M1835 1919 c-3 -4 2 -6 10 -5 21 3 28 13 10 13 -9 0 -18 -4 -20 -8z"/>
<path d="M1890 1926 c0 -2 7 -9 15 -16 13 -11 14 -10 9 4 -5 14 -24 23 -24 12z"/>
<path d="M1995 1420 c-16 -7 -17 -9 -3 -9 9 -1 20 4 23 9 7 11 7 11 -20 0z"/>
<path d="M1995 1260 c-16 -7 -17 -9 -3 -9 9 -1 20 4 23 9 7 11 7 11 -20 0z"/>
<path d="M650 720 c0 -5 5 -10 10 -10 6 0 10 5 10 10 0 6 -4 10 -10 10 -5 0
-10 -4 -10 -10z"/>
<path d="M870 638 c0 -4 4 -8 9 -8 6 0 12 4 15 8 3 5 -1 9 -9 9 -8 0 -15 -4
-15 -9z"/>
<path d="M1000 420 c0 -5 5 -10 11 -10 5 0 7 5 4 10 -3 6 -8 10 -11 10 -2 0
-4 -4 -4 -10z"/>
</g>
</svg>
